<?xml version="1.0" encoding="UTF-8" standalone="no"?>
<!-- Created with Inkscape (http://www.inkscape.org/) -->

<svg
   xmlns:dc="http://purl.org/dc/elements/1.1/"
   xmlns:cc="http://creativecommons.org/ns#"
   xmlns:rdf="http://www.w3.org/1999/02/22-rdf-syntax-ns#"
   xmlns:svg="http://www.w3.org/2000/svg"
   xmlns="http://www.w3.org/2000/svg"
   xmlns:sodipodi="http://sodipodi.sourceforge.net/DTD/sodipodi-0.dtd"
   xmlns:inkscape="http://www.inkscape.org/namespaces/inkscape"
   width="48"
   height="48"
   id="svg2"
   version="1.1"
   inkscape:version="0.92.4 (unknown)"
   sodipodi:docname="ic_launcher.svg"
   inkscape:export-filename="/home/morgenro/sources/ibrdtn-android.git/android/ibrdtn/material-design-logo.png"
   inkscape:export-xdpi="90"
   inkscape:export-ydpi="90">
  <defs
     id="defs4" />
  <sodipodi:namedview
     id="base"
     pagecolor="#ffffff"
     bordercolor="#666666"
     borderopacity="1.0"
     inkscape:pageopacity="0.0"
     inkscape:pageshadow="2"
     inkscape:zoom="15.839192"
     inkscape:cx="17.910383"
     inkscape:cy="19.849041"
     inkscape:document-units="px"
     inkscape:current-layer="layer1"
     showgrid="false"
     inkscape:window-width="1920"
     inkscape:window-height="1016"
     inkscape:window-x="0"
     inkscape:window-y="27"
     inkscape:window-maximized="1"
     showguides="true"
     inkscape:guide-bbox="true">
    <sodipodi:guide
       orientation="1,0"
       position="2,41.29"
       id="guide3214"
       inkscape:locked="false" />
    <sodipodi:guide
       orientation="0,1"
       position="0,46"
       id="guide3216"
       inkscape:locked="false" />
    <sodipodi:guide
       orientation="0,1"
       position="0,2"
       id="guide3218"
       inkscape:locked="false" />
    <sodipodi:guide
       orientation="1,0"
       position="46,0"
       id="guide3220"
       inkscape:locked="false" />
  </sodipodi:namedview>
  <metadata
     id="metadata7">
    <rdf:RDF>
      <cc:Work
         rdf:about="">
        <dc:format>image/svg+xml</dc:format>
        <dc:type
           rdf:resource="http://purl.org/dc/dcmitype/StillImage" />
        <dc:title />
      </cc:Work>
    </rdf:RDF>
  </metadata>
  <g
     inkscape:label="Ebene 1"
     inkscape:groupmode="layer"
     id="layer1"
     transform="translate(0,-1004.3622)">
    <rect
       rx="24"
       ry="24"
       y="141.27434"
       x="57.83617"
       height="387.14285"
       width="510"
       id="rect4061"
       style="opacity:0.22000002;fill:#000000;fill-opacity:1;fill-rule:nonzero;stroke:none"
       transform="matrix(0.08579952,0,0,0.08579952,-2.8411977,1005.2834)" />
    <g
       transform="matrix(0.04595027,0,0,0.04595027,0.47346176,1005.9186)"
       id="g4063">
      <path
         style="opacity:0.22000002;fill:#000000;fill-opacity:1;stroke:none"
         d="m 54.40625,63.86512 c -5.45268,0 -8.80368,3.75182 -9.84375,8.125 l -20,144.09375 h 974.875 l -20,-144.09375 c -0.618,-4.452474 -4.39107,-8.125 -9.84375,-8.125 z"
         id="path4065"
         inkscape:connector-curvature="0"
         sodipodi:nodetypes="ssccsss" />
      <path
         style="opacity:0.22000002;fill:#000000;fill-opacity:1;fill-rule:nonzero;stroke:none"
         d="m 34.40625,63.86512 c -0.6711,0 -1.33602,0.0514 -1.96875,0.15625 0.64187,-0.10773 1.28716,-0.15625 1.96875,-0.15625 z m 955.18745,0 c 0.6816,0 1.3269,0.0485 1.9688,0.15625 -0.6327,-0.10481 -1.2976,-0.15625 -1.9688,-0.15625 z m -958.12495,0.375 c -0.61719,0.158 -1.192,0.34392 -1.75,0.59375 0.55793,-0.24924 1.13286,-0.43617 1.75,-0.59375 z m 961.06245,0 c 0.6172,0.15758 1.1921,0.34451 1.75,0.59375 -0.558,-0.24983 -1.1328,-0.43575 -1.75,-0.59375 z m -967.5937,5.5625 c -0.15054,0.44368 -0.2548,0.87255 -0.3125,1.34375 0.0563,-0.46005 0.16755,-0.91006 0.3125,-1.34375 z m 974.125,0 c 0.1449,0.43369 0.2562,0.8837 0.3125,1.34375 -0.058,-0.4712 -0.162,-0.90007 -0.3125,-1.34375 z m -974.5,146.28125 v 132.28125 c 0,4.49516 4.39107,8.125 9.84375,8.125 H 989.5937 c 5.4527,0 9.8438,-3.62984 9.8438,-8.125 V 216.08387 Z"
         id="path4067"
         inkscape:connector-curvature="0"
         sodipodi:nodetypes="cccccccccccccccccccsssscc" />
    </g>
    <rect
       style="fill:#ffb300;fill-opacity:1;fill-rule:nonzero;stroke:#ffd54f;stroke-width:0.04595027;stroke-opacity:1"
       id="rect4069"
       width="43.757759"
       height="33.216675"
       x="2.1211209"
       y="1016.3017"
       ry="2.0591888"
       rx="2.0591888" />
    <path
       id="path4071"
       d="m 4.1806927,1016.3013 c -1.1407981,0 -2.0591877,0.9184 -2.0591877,2.0592 v 29.0995 c 0,0.6021 0.2557086,1.1417 0.6649462,1.5177 l 42.4385898,-32.124 c -0.367462,-0.3425 -0.86063,-0.5524 -1.404968,-0.5524 z"
       style="fill:#ffbf06;fill-opacity:1;fill-rule:nonzero;stroke:none"
       inkscape:connector-curvature="0" />
    <g
       transform="matrix(0.04595027,0,0,0.04595027,1.3924672,1002.7939)"
       style="opacity:0.22000002;fill:#000000;fill-opacity:1"
       id="g4073">
      <path
         sodipodi:nodetypes="ssccsss"
         inkscape:connector-curvature="0"
         id="path4075"
         d="m 60.65625,235.95593 c -24.826634,0 -44.8125,19.98587 -44.8125,44.8125 V 428.48718 H 968.1562 V 280.76843 c 0,-24.82663 -19.98582,-44.8125 -44.81245,-44.8125 z"
         style="fill:#000000;fill-opacity:1;stroke:none" />
    </g>
    <path
       style="opacity:0.22000002;fill:#000000;fill-opacity:1;fill-rule:nonzero;stroke:none"
       d="m 36.037533,1031.043 -12.037534,12.0375 6.437344,6.4374 H 43.82036 c 1.14079,0 2.059149,-0.9184 2.059149,-2.0591 v -6.5738 z"
       id="path4077"
       inkscape:connector-curvature="0"
       inkscape:label="path4077" />
    <path
       style="opacity:0.22000002;fill:#000000;fill-opacity:1;fill-rule:nonzero;stroke:none"
       d="m 24.000233,1026.4164 c -4.647517,0 -8.876208,1.7555 -12.037768,4.6263 l 12.037768,12.0377 12.037762,-12.0377 c -3.161602,-2.871 -7.39006,-4.6263 -12.037762,-4.6263 z"
       id="path4102"
       inkscape:connector-curvature="0" />
    <path
       inkscape:connector-curvature="0"
       style="fill:#ffffff;fill-opacity:1;fill-rule:nonzero;stroke:none"
       d="m 23.999999,1026.4164 c -4.647517,0 -8.875974,1.7559 -12.037534,4.6266 l 2.406644,2.4066 c 2.529251,-2.2965 5.912873,-3.7003 9.63089,-3.7003 3.718163,0 7.101604,1.4036 9.630889,3.7003 l 2.406645,-2.4066 c -3.161602,-2.8709 -7.389832,-4.6266 -12.037534,-4.6266 z m 0,6.6656 c -2.788511,0 -5.325869,1.0533 -7.222809,2.7757 l 2.408082,2.4068 c 1.264621,-1.1484 2.955721,-1.8496 4.814727,-1.8496 1.859081,0 3.55008,0.7011 4.814726,1.8496 l 2.408082,-2.4068 c -1.896963,-1.7225 -4.434186,-2.7757 -7.222808,-2.7757 z m 0,6.6658 c -0.929506,0 -1.775771,0.3505 -2.408082,0.9246 l 2.408082,2.4081 2.408081,-2.4081 c -0.632323,-0.5742 -1.478542,-0.9246 -2.408081,-0.9246 z"
       id="path4079" />
    <path
       sodipodi:nodetypes="ssccsss"
       inkscape:connector-curvature="0"
       id="path4089"
       d="m 2.9734437,1008.4856 c -0.2505522,0 -0.4045315,0.1724 -0.4523231,0.3734 l -0.9190054,6.6211 C 2,1016.554 46,1016.8691 46.397882,1015.4801 l -0.919005,-6.6211 c -0.0284,-0.2046 -0.20177,-0.3734 -0.452323,-0.3734 z"
       style="fill:#ffb300;fill-opacity:1;stroke:none" />
    <path
       sodipodi:nodetypes="cccccccccccccccccccsssscc"
       inkscape:connector-curvature="0"
       id="path4091"
       d="m 2.0544382,1008.4856 c -0.030837,0 -0.061391,0 -0.090465,0.01 0.029494,0 0.059145,-0.01 0.090465,-0.01 z m 43.8911178,0 c 0.03132,0 0.06096,0 0.09047,0.01 -0.02907,0 -0.05963,-0.01 -0.09047,-0.01 z m -44.0260967,0.017 c -0.028359,0.01 -0.054773,0.016 -0.080413,0.027 0.025637,-0.012 0.052055,-0.02 0.080413,-0.027 z m 44.1610777,0 c 0.02837,0.01 0.05478,0.016 0.08042,0.027 -0.02565,-0.012 -0.05205,-0.02 -0.08042,-0.027 z m -44.4611904,0.2558 c -0.00692,0.02 -0.011708,0.04 -0.01436,0.062 0.00259,-0.021 0.00769,-0.042 0.01436,-0.062 z m 44.7613044,0 c 0.0067,0.02 0.01178,0.041 0.01436,0.062 -0.0027,-0.022 -0.0074,-0.041 -0.01436,-0.062 z M 1.6021152,1015.48 v 6.0783 c 0,0.2066 0.2017709,0.3734 0.452323,0.3734 H 45.945556 c 0.250557,0 0.452326,-0.1668 0.452326,-0.3734 v -6.0783 z"
       style="fill:#ffa000;fill-opacity:1;fill-rule:nonzero;stroke:none" />
    <path
       sodipodi:nodetypes="sscccss"
       inkscape:connector-curvature="0"
       id="path4093"
       d="m 2.9734437,1008.4856 c -0.2505522,0 -0.4045315,0.1724 -0.4523231,0.3734 l -0.9190054,6.6211 h 0.3747819 l 43.3325379,-6.8983 c -0.07341,-0.058 -0.167764,-0.096 -0.282881,-0.096 z"
       style="fill:#ffbf06;fill-opacity:1;stroke:none" />
  </g>
</svg>
